<?xml version="1.0" encoding="UTF-8" standalone="no"?>
<!DOCTYPE svg PUBLIC "-//W3C//DTD SVG 20010904//EN"
              "http://www.w3.org/TR/2001/REC-SVG-20010904/DTD/svg10.dtd">

<svg xmlns="http://www.w3.org/2000/svg"
     width="43.3494mm" height="43.3494mm"
     viewBox="0 0 512 512">
  <path id="Selection"
        fill="none" stroke="white" stroke-width="5"
        d="M 220.00,32.00
           C 219.04,39.44 224.44,51.13 226.36,58.99
             226.36,58.99 240.59,123.00 240.59,123.00
             240.59,123.00 248.70,173.00 248.70,173.00
             248.70,173.00 250.17,189.00 250.17,189.00
             250.17,189.00 253.00,211.00 253.00,211.00
             253.00,211.00 253.00,219.00 253.00,219.00
             253.00,219.00 255.00,248.00 255.00,248.00
             255.00,248.00 256.00,265.00 256.00,265.00
             256.00,265.00 256.00,318.00 256.00,318.00
             256.00,318.00 254.17,344.00 254.17,344.00
             254.17,344.00 252.83,365.00 252.83,365.00
             252.83,365.00 245.59,410.83 245.59,410.83
             245.59,410.83 241.11,431.00 241.11,431.00
             240.96,434.93 242.33,438.10 246.84,437.71
             248.29,437.58 250.56,436.54 252.00,436.00
             252.55,432.37 254.93,429.43 256.31,426.00
             256.31,426.00 269.70,396.00 269.70,396.00
             275.80,382.42 284.68,352.88 288.11,338.00
             291.47,323.43 295.98,291.66 296.00,277.00
             296.00,277.00 296.00,247.00 296.00,247.00
             296.00,247.00 291.45,199.72 291.45,199.72
             287.25,172.50 279.46,146.04 270.67,120.00
             270.67,120.00 251.62,72.00 251.62,72.00
             251.62,72.00 244.50,57.00 244.50,57.00
             244.50,57.00 235.67,39.04 235.67,39.04
             234.85,37.55 233.42,33.75 232.22,32.90
             230.28,31.54 222.63,32.00 220.00,32.00 Z
           M 392.00,62.00
           C 392.00,62.00 389.00,61.00 389.00,61.00
             384.83,65.17 380.71,66.19 376.28,69.59
             365.89,77.60 360.41,83.63 352.50,94.00
             343.03,106.41 334.26,125.31 328.77,140.00
             317.16,171.08 310.92,199.16 306.85,232.00
             306.85,232.00 305.16,242.00 305.16,242.00
             305.16,242.00 302.91,269.00 302.91,269.00
             302.32,277.68 300.64,279.04 304.00,288.00
             314.14,286.87 313.84,280.75 316.04,272.00
             316.04,272.00 319.14,262.00 319.14,262.00
             319.14,262.00 326.23,238.00 326.23,238.00
             326.23,238.00 334.52,212.00 334.52,212.00
             344.13,182.54 359.64,144.15 374.31,117.00
             374.31,117.00 393.30,84.00 393.30,84.00
             399.04,74.63 403.57,71.81 402.00,60.00
             398.37,60.00 394.55,59.16 392.00,62.00 Z
           M 147.09,99.74
           C 139.93,102.37 142.91,107.95 145.24,113.17
             145.24,113.17 161.54,149.00 161.54,149.00
             177.55,184.60 190.76,222.21 200.48,260.00
             200.48,260.00 203.79,272.00 203.79,272.00
             203.79,272.00 211.12,308.00 211.12,308.00
             211.85,311.35 212.06,317.63 215.28,319.33
             221.20,322.46 224.23,316.78 225.33,312.00
             227.47,302.77 229.11,286.49 229.00,277.00
             229.00,277.00 228.09,267.00 228.09,267.00
             224.47,219.51 203.66,176.68 178.52,137.00
             178.52,137.00 159.55,109.00 159.55,109.00
             156.06,104.14 153.59,99.95 147.09,99.74 Z
           M 209.00,471.02
           C 209.00,471.02 214.15,471.02 214.15,471.02
             220.71,470.01 219.86,461.20 220.45,456.17
             220.45,456.17 222.28,437.00 222.28,437.00
             222.28,437.00 226.01,406.00 226.01,406.00
             226.01,406.00 226.96,396.00 226.96,396.00
             226.96,396.00 224.70,366.00 224.70,366.00
             224.70,366.00 222.46,356.00 222.46,356.00
             215.84,320.91 199.68,288.09 179.23,259.00
             172.29,249.13 155.86,230.93 146.99,222.64
             143.32,219.21 131.89,211.05 131.00,207.00
             128.90,206.80 128.81,206.98 126.99,205.57
             126.99,205.57 120.96,200.26 120.96,200.26
             117.03,197.62 108.47,194.54 108.07,202.03
             107.79,207.12 110.46,209.53 113.62,213.05
             113.62,213.05 127.93,229.00 127.93,229.00
             141.77,244.34 158.21,269.53 167.74,288.00
             183.82,319.17 194.32,354.25 198.84,389.00
             198.84,389.00 203.96,433.00 203.96,433.00
             203.96,433.00 203.96,442.00 203.96,442.00
             204.68,450.65 206.41,462.80 209.00,471.02 Z
           M 352.00,257.00
           C 350.87,260.85 344.30,265.20 341.26,268.46
             334.70,275.48 326.89,285.78 321.92,294.00
             308.57,316.12 301.78,343.40 299.91,369.00
             299.91,369.00 299.00,379.00 299.00,379.00
             298.84,392.97 298.21,416.63 304.00,429.00
             307.74,429.22 309.35,430.23 311.90,425.82
             314.06,422.08 315.24,412.55 316.09,408.00
             316.09,408.00 321.01,388.00 321.01,388.00
             326.43,364.25 344.57,313.32 354.88,291.00
             354.88,291.00 364.83,269.00 364.83,269.00
             366.46,265.40 366.42,263.21 369.00,260.00
             369.00,260.00 367.33,256.13 367.33,256.13
             362.84,248.90 356.80,256.41 352.00,257.00 Z
           M 388.00,329.00
           C 377.22,324.01 367.89,331.39 359.91,338.32
             341.75,354.07 333.36,377.95 329.21,401.00
             329.21,401.00 326.58,421.00 326.58,421.00
             326.20,423.90 325.40,427.93 327.74,430.26
             330.00,432.52 334.13,432.11 336.48,430.26
             338.71,428.52 345.44,417.10 347.27,414.00
             347.27,414.00 355.67,400.00 355.67,400.00
             355.67,400.00 371.10,372.00 371.10,372.00
             378.12,358.55 387.13,344.42 388.00,329.00 Z
           M 387.00,329.00
           C 387.00,329.00 387.00,330.00 387.00,330.00
             387.00,330.00 386.00,329.00 386.00,329.00
             386.00,329.00 387.00,329.00 387.00,329.00 Z" />
</svg>
